<mxfile host="app.diagrams.net" modified="2023-10-31T02:45:30.193Z" agent="Mozilla/5.0 (Macintosh; Intel Mac OS X 10_15_7) AppleWebKit/537.36 (KHTML, like Gecko) Chrome/118.0.0.0 Safari/537.36" version="22.0.8" etag="53BLB0Hrd3LGXD6NokvZ" type="github">
  <diagram name="第 1 页" id="pji0z1RHC8SMX0YS-4fx">
    <mxGraphModel>
      <root>
        <mxCell id="0" />
        <mxCell id="1" parent="0" />
      </root>
    </mxGraphModel>
  </diagram>
</mxfile>
